<svg width="296" height="296" viewBox="0 0 296 296" fill="none" xmlns="http://www.w3.org/2000/svg">
<path d="M295.479 147.646C295.479 222.214 240.205 283.861 168.399 293.865C161.685 294.796 154.816 295.282 147.843 295.282C139.795 295.282 131.891 294.641 124.194 293.4C53.8986 282.082 0.207153 221.128 0.207153 147.646C0.207153 66.1057 66.3128 0 147.854 0C229.394 0 295.5 66.1057 295.5 147.646H295.479Z" fill="#1877F7"/>
<path d="M168.399 118.556V150.719H208.187L201.886 194.045H168.399V293.865C161.685 294.796 154.816 295.283 147.843 295.283C139.795 295.283 131.891 294.641 124.194 293.4V194.045H87.4998V150.719H124.194V111.366C124.194 86.9513 143.984 67.1506 168.409 67.1506V67.1713C168.482 67.1713 168.544 67.1506 168.616 67.1506H208.197V104.621H182.334C174.648 104.621 168.409 110.859 168.409 118.545L168.399 118.556Z" fill="white"/>
</svg>
