<svg width="297" height="296" viewBox="0 0 297 296" fill="none" xmlns="http://www.w3.org/2000/svg">
<path d="M148.938 0.010376H148.266C66.9115 0.010376 0.960815 65.9611 0.960815 147.315V147.988C0.960815 229.342 66.9115 295.293 148.266 295.293H148.938C230.293 295.293 296.243 229.342 296.243 147.988V147.315C296.243 65.9611 230.293 0.010376 148.938 0.010376Z" fill="#00E510"/>
<path d="M177.377 190.837C139.586 190.837 108.84 160.081 108.83 122.29C108.84 112.711 116.641 104.921 126.2 104.921C127.182 104.921 128.155 105.004 129.086 105.169C131.134 105.51 133.079 106.204 134.869 107.248C135.127 107.404 135.303 107.652 135.345 107.942L139.338 133.111C139.39 133.411 139.297 133.701 139.1 133.918C136.896 136.36 134.083 138.118 130.948 138.998L129.438 139.422L130.007 140.881C135.158 153.998 145.649 164.478 158.777 169.651L160.235 170.23L160.659 168.72C161.539 165.585 163.297 162.771 165.739 160.567C165.915 160.402 166.153 160.319 166.391 160.319C166.442 160.319 166.494 160.319 166.556 160.33L191.726 164.323C192.026 164.375 192.274 164.54 192.429 164.799C193.464 166.588 194.157 168.544 194.509 170.592C194.674 171.502 194.747 172.464 194.747 173.468C194.747 183.037 186.957 190.827 177.377 190.837Z" fill="#FDFDFD"/>
<path d="M244.393 139.36C242.355 116.332 231.803 94.9688 214.682 79.2131C197.457 63.3643 175.112 54.6329 151.742 54.6329C100.45 54.6329 58.718 96.3654 58.718 147.657C58.718 164.871 63.4663 181.641 72.4563 196.248L52.4073 240.629L116.599 233.791C127.762 238.363 139.576 240.681 151.731 240.681C154.928 240.681 158.208 240.515 161.497 240.174C164.394 239.863 167.322 239.408 170.198 238.829C213.151 230.149 244.507 192.027 244.755 148.153V147.657C244.755 144.864 244.631 142.07 244.383 139.36H244.393ZM119.072 214.311L83.5568 218.097L94.1606 194.603L92.0398 191.758C91.8846 191.551 91.7295 191.344 91.5536 191.106C82.3464 178.392 77.484 163.371 77.484 147.667C77.484 106.721 110.796 73.4094 151.742 73.4094C190.102 73.4094 222.617 103.338 225.751 141.543C225.917 143.591 226.01 145.65 226.01 147.677C226.01 148.257 225.999 148.826 225.989 149.436C225.203 183.689 201.274 212.78 167.797 220.187C165.242 220.756 162.625 221.19 160.018 221.47C157.307 221.78 154.525 221.935 151.762 221.935C141.924 221.935 132.365 220.032 123.334 216.266C122.33 215.863 121.348 215.428 120.427 214.983L119.082 214.331L119.072 214.311Z" fill="#FDFDFD"/>
</svg>
